<svg xmlns="http://www.w3.org/2000/svg" width="24" height="24" viewBox="0 0 24 24" fill="none">
  <path d="M8.76818 3.71012L10.8382 2.87012C11.6482 2.54012 12.5782 2.93012 12.9082 3.75012L13.5382 5.29012C13.8682 6.10012 13.4782 7.03012 12.6582 7.37012L10.3682 8.30012C10.6082 9.45012 10.9782 10.8001 11.5582 12.2601C12.2082 13.9101 12.9582 15.2701 13.6382 16.3601L15.9282 15.4301C16.7482 15.1001 17.6782 15.4901 18.0082 16.3101L18.6382 17.8501C18.9682 18.6701 18.5782 19.6001 17.7582 19.9301L15.6882 20.7701L15.6482 20.7901C13.4182 21.6901 10.8482 20.8201 9.68818 18.7201C8.90818 17.3101 8.13818 15.7301 7.42818 13.9601C6.78818 12.3601 6.28818 10.8301 5.90818 9.41012C5.27818 7.08012 6.49818 4.65012 8.72818 3.74012L8.76818 3.71012Z" stroke="white" stroke-opacity="0.72" stroke-width="1.2" stroke-miterlimit="10" stroke-linecap="round" stroke-linejoin="round"/>
</svg>