<svg width="337" height="24" viewBox="0 0 337 24" fill="none" xmlns="http://www.w3.org/2000/svg">
<path d="M14.88 17.952C13.712 17.824 12.864 17.368 12.336 16.584C11.824 15.8 11.568 14.848 11.568 13.728C11.568 12.64 11.728 11.576 12.048 10.536C12.368 9.496 12.8 8.512 13.344 7.584C13.904 6.656 14.512 5.816 15.168 5.064C15.84 4.296 16.512 3.648 17.184 3.12L20.208 3.048C19.616 3.96 19.136 4.888 18.768 5.832C18.4 6.76 18.128 7.744 17.952 8.784C17.792 9.824 17.712 10.944 17.712 12.144C17.712 13.024 17.712 13.936 17.712 14.88C17.712 15.824 17.712 16.768 17.712 17.712L14.88 17.952ZM5.424 17.952C4.256 17.824 3.408 17.368 2.88 16.584C2.368 15.8 2.112 14.848 2.112 13.728C2.112 12.64 2.272 11.576 2.592 10.536C2.912 9.496 3.344 8.512 3.888 7.584C4.448 6.656 5.056 5.816 5.712 5.064C6.384 4.296 7.056 3.648 7.728 3.12L10.752 3.048C10.16 3.96 9.68 4.888 9.312 5.832C8.944 6.76 8.672 7.744 8.496 8.784C8.336 9.824 8.256 10.944 8.256 12.144C8.256 13.024 8.256 13.936 8.256 14.88C8.256 15.824 8.256 16.768 8.256 17.712L5.424 17.952Z" fill="#DDDDDD"/>
<path d="M38 11.5H336" stroke="#DDDDDD" stroke-width="2" stroke-linecap="round"/>
</svg>
