<svg xmlns="http://www.w3.org/2000/svg" width="24" height="24" viewBox="0 0 24 24" fill="none">
  <path d="M18.39 9.9901C18.39 14.1401 14.34 19.1301 12.69 20.9901C12.32 21.4001 11.68 21.4001 11.31 20.9901C9.66 19.1301 5.61 14.1401 5.61 9.9901C5.61 6.4601 8.47 3.6001 12 3.6001C15.53 3.6001 18.39 6.4601 18.39 9.9901Z" stroke="white" stroke-opacity="0.72" stroke-width="1.2" stroke-miterlimit="10" stroke-linecap="round" stroke-linejoin="round"/>
  <path d="M11.99 12.5502C13.4038 12.5502 14.55 11.404 14.55 9.99018C14.55 8.57633 13.4038 7.43018 11.99 7.43018C10.5761 7.43018 9.42999 8.57633 9.42999 9.99018C9.42999 11.404 10.5761 12.5502 11.99 12.5502Z" stroke="white" stroke-opacity="0.72" stroke-width="1.2" stroke-miterlimit="10" stroke-linecap="round" stroke-linejoin="round"/>
</svg>